# xmcd
#
# Track frame offsets:
#	150
#	17787
#	32562
#	45077
#	60605
#	83705
#	96035
#	115630
#	133795
#	161300
#	180117
#	194437
#	209032
#	230130
#	249627
#
# Disc length: 3511 seconds
# Revision: 3
# Processed by: cddbd v1.5.2PL0 Copyright (c) Steve Scherf et al.
# Submitted via: dBpowerAMP V12.0
#
DISCID=bc0db50f
DTITLE=Various Artist - Lost Highway: Lost and Found Volume 1
DYEAR=2003
DGENRE=Country
TTITLE0=Ryan Adams - Rosalie Come and Go
TTITLE1=Marc Broussard - Just Like That
TTITLE2=Lucinda Williams - Buick Blues
TTITLE3=The Jayhawks - Fools on Parade
TTITLE4=Tift Merritt - Trouble Over Me
TTITLE5=Willie Nelson - Run That By Me One More Time
TTITLE6=Joe Ely - Streets of Sin
TTITLE7=The Jayhawks - Falling Star
TTITLE8=Kathleen Edwards - Hockey Skates
TTITLE9=Bright Eyes - Trees Get Wheeled Away
TTITLE10=Whiskeytown - Choked Up
TTITLE11=Willie Nelson - I Didn't Come Here (And I Ain't Leavin')
TTITLE12=Lucinda Williams - Righteously
TTITLE13=UnAmerican - Sometimes
TTITLE14=Johnny Cash - Wichita Lineman
EXTD=
EXTT0=
EXTT1=
EXTT2=
EXTT3=
EXTT4=
EXTT5=
EXTT6=
EXTT7=
EXTT8=
EXTT9=
EXTT10=
EXTT11=
EXTT12=
EXTT13=
EXTT14=
PLAYORDER=
